<svg width="75" height="75" viewBox="0 0 75 75" fill="none" xmlns="http://www.w3.org/2000/svg">
<g id="Group 132">
<circle id="Ellipse 7" cx="37.5" cy="37.5" r="37.5" fill="#27425C"/>
<g id="Union">
<mask id="path-2-outside-1_237_793" maskUnits="userSpaceOnUse" x="12.832" y="13.832" width="49" height="49" fill="black">
<rect fill="white" x="12.832" y="13.832" width="49" height="49"/>
<path fill-rule="evenodd" clip-rule="evenodd" d="M37.4999 57.1677C48.3621 57.1677 57.1677 48.3621 57.1677 37.4999C57.1677 26.6376 48.3621 17.832 37.4999 17.832C26.6376 17.832 17.832 26.6376 17.832 37.4999C17.832 41.3787 18.9549 44.9952 20.8932 48.0422L18.6189 56.3812L26.9582 54.1069C30.005 56.045 33.6213 57.1677 37.4999 57.1677Z"/>
</mask>
<path fill-rule="evenodd" clip-rule="evenodd" d="M37.4999 57.1677C48.3621 57.1677 57.1677 48.3621 57.1677 37.4999C57.1677 26.6376 48.3621 17.832 37.4999 17.832C26.6376 17.832 17.832 26.6376 17.832 37.4999C17.832 41.3787 18.9549 44.9952 20.8932 48.0422L18.6189 56.3812L26.9582 54.1069C30.005 56.045 33.6213 57.1677 37.4999 57.1677Z" fill="#27425C"/>
<path d="M20.8932 48.0422L24.7523 49.0947L25.2178 47.3879L24.2682 45.8952L20.8932 48.0422ZM18.6189 56.3812L14.7599 55.3288L12.9181 62.0821L19.6714 60.2403L18.6189 56.3812ZM26.9582 54.1069L29.105 50.7319L27.6124 49.7824L25.9057 50.2479L26.9582 54.1069ZM53.1677 37.4999C53.1677 46.153 46.153 53.1677 37.4999 53.1677V61.1677C50.5712 61.1677 61.1677 50.5712 61.1677 37.4999H53.1677ZM37.4999 21.832C46.153 21.832 53.1677 28.8468 53.1677 37.4999H61.1677C61.1677 24.4285 50.5712 13.832 37.4999 13.832V21.832ZM21.832 37.4999C21.832 28.8468 28.8468 21.832 37.4999 21.832V13.832C24.4285 13.832 13.832 24.4285 13.832 37.4999H21.832ZM24.2682 45.8952C22.7259 43.4709 21.832 40.5959 21.832 37.4999H13.832C13.832 42.1615 15.1838 46.5196 17.5183 50.1892L24.2682 45.8952ZM22.478 57.4337L24.7523 49.0947L17.0342 46.9897L14.7599 55.3288L22.478 57.4337ZM25.9057 50.2479L17.5665 52.5222L19.6714 60.2403L28.0106 57.966L25.9057 50.2479ZM37.4999 53.1677C34.4041 53.1677 31.5293 52.2739 29.105 50.7319L24.8113 57.482C28.4808 59.8161 32.8386 61.1677 37.4999 61.1677V53.1677Z" fill="white" mask="url(#path-2-outside-1_237_793)"/>
</g>
<path id="Vector" d="M45.4718 47.2812C43.3564 47.2812 41.2191 46.7742 39.06 45.7602C36.901 44.7462 34.9123 43.3302 33.0941 41.512C31.2585 39.6938 29.8293 37.692 28.8066 35.5067C27.7838 33.3214 27.2725 31.1885 27.2725 29.1081C27.2725 28.6011 27.4473 28.1684 27.7969 27.81C28.1466 27.4517 28.5749 27.2725 29.0819 27.2725H32.6221C33.1641 27.2725 33.6099 27.4167 33.9595 27.7052C34.3092 27.9936 34.5364 28.4088 34.6413 28.9508L35.3494 31.7305C35.3843 32.185 35.3538 32.5959 35.2576 32.963C35.1614 33.3302 34.9823 33.6274 34.72 33.8546L32.0452 36.3197C32.3948 36.949 32.8013 37.5478 33.2646 38.116C33.7279 38.6842 34.2305 39.2218 34.7725 39.7288C35.3494 40.3581 35.935 40.8957 36.5295 41.3415C37.1239 41.7873 37.727 42.1763 38.3389 42.5085L40.935 39.9123C41.2148 39.5976 41.5426 39.3835 41.9184 39.2698C42.2943 39.1562 42.7008 39.1518 43.1378 39.2567L45.6291 39.8336C46.1536 39.991 46.56 40.2445 46.8485 40.5941C47.137 40.9438 47.2812 41.3809 47.2812 41.9053V45.4718C47.2812 45.9788 47.102 46.4071 46.7436 46.7567C46.3852 47.1064 45.9613 47.2812 45.4718 47.2812Z" fill="white"/>
</g>
</svg>
