<svg width="24" height="21" viewBox="0 0 24 21" fill="none" xmlns="http://www.w3.org/2000/svg">
<g id="Layer_1" clip-path="url(#clip0_39_885)">
<path id="Vector" d="M12.0044 6.11168C12.0044 2.73629 9.31709 0 6.00218 0C2.68727 0 0 2.73629 0 6.11168C0 9.48706 2.68727 12.2234 6.00218 12.2234C9.31709 12.2234 12.0044 9.48706 12.0044 6.11168Z" fill="#7B786C"/>
<path id="Vector_2" d="M12.0044 20.9997L1.91058 10.5796L12.0044 6.11133V20.9997Z" fill="#7B786C"/>
<path id="Vector_3" d="M11.9956 6.11098C11.9956 9.48637 14.6829 12.2227 17.9978 12.2227C21.3127 12.2227 24 9.48637 24 6.11098C24 2.7356 21.3127 -0.000694275 17.9978 -0.000694275C14.6829 -0.000694275 11.9956 2.7356 11.9956 6.11098Z" fill="#7B786C"/>
<path id="Vector_4" d="M12.0043 20.9997L22.0981 10.5796L12.0043 6.11133V20.9997Z" fill="#7B786C"/>
</g>
<defs>
<clipPath id="clip0_39_885">
<rect width="24" height="21" fill="white"/>
</clipPath>
</defs>
</svg>
