<svg width="22" height="21" viewBox="0 0 22 21" fill="none" xmlns="http://www.w3.org/2000/svg">
<path id="Vector" d="M11 0C4.9247 0 0 4.70085 0 10.5C0 14.9488 2.8996 18.7477 6.9916 20.2776C6.8959 19.4471 6.8079 18.1723 7.0301 17.2662C7.2303 16.4472 8.3193 12.0466 8.3193 12.0466C8.3193 12.0466 7.9904 11.4177 7.9904 10.4885C7.9904 9.0279 8.877 7.93905 9.9803 7.93905C10.9186 7.93905 11.3718 8.6121 11.3718 9.41745C11.3718 10.3183 10.7712 11.6655 10.461 12.9129C10.2014 13.9587 11.0099 14.8102 12.0901 14.8102C14.0448 14.8102 15.5474 12.8425 15.5474 10.0023C15.5474 7.4886 13.6554 5.7309 10.9527 5.7309C7.8232 5.7309 5.9862 7.9716 5.9862 10.2879C5.9862 11.1898 6.3503 12.1579 6.8046 12.684C6.8948 12.7879 6.9069 12.8793 6.8805 12.9853C6.7969 13.3171 6.6121 14.0301 6.5758 14.1761C6.5285 14.3682 6.4163 14.4091 6.2084 14.3157C4.8345 13.7046 3.9754 11.7873 3.9754 10.248C3.9754 6.9363 6.4966 3.8934 11.2442 3.8934C15.0601 3.8934 18.0257 6.489 18.0257 9.9582C18.0257 13.5775 15.6354 16.4892 12.3178 16.4892C11.2035 16.4892 10.1552 15.9358 9.7966 15.2838C9.7966 15.2838 9.2444 17.2882 9.1113 17.7807C8.8627 18.6921 8.1928 19.8366 7.744 20.5338C8.7725 20.8351 9.8659 21 11 21C17.0742 21 22 16.2981 22 10.5C22 4.7019 17.0753 0 11 0Z" fill="#7B786C"/>
</svg>
