<svg width="22" height="17" viewBox="0 0 22 17" fill="none" xmlns="http://www.w3.org/2000/svg">
<path id="Vector" d="M22 0C21.142 0.491907 19.4205 1.1623 18.4085 1.35567C18.3788 1.3631 18.3546 1.37266 18.326 1.3801C17.4317 0.528029 16.2063 0 14.85 0C12.1165 0 9.9 2.1408 9.9 4.78095C9.9 4.92013 9.8879 5.17618 9.9 5.31217C6.2117 5.31217 3.4045 3.44653 1.3915 1.06243C1.1726 1.59365 1.0769 2.43297 1.0769 3.2213C1.0769 4.70977 2.2814 6.17168 4.1569 7.07793C3.8115 7.16399 3.4309 7.22561 3.0349 7.22561C2.3958 7.22561 1.7193 7.06306 1.1 6.57009C1.1 6.58815 1.1 6.60515 1.1 6.62427C1.1 8.70452 3.3858 10.1207 5.4186 10.5149C5.0061 10.7497 4.1745 10.7731 3.7686 10.7731C3.4826 10.7731 2.4706 10.6466 2.2 10.5978C2.7654 12.303 4.8048 13.2613 6.7485 13.2953C5.2283 14.447 4.1734 14.8741 1.0604 14.8741H0C1.9668 16.0916 4.4715 17 6.9817 17C15.1547 17 19.8 10.9834 19.8 5.31217C19.8 5.2208 19.7978 5.02956 19.7945 4.83726C19.7945 4.81814 19.8 4.80007 19.8 4.78095C19.8 4.75226 19.7912 4.72464 19.7912 4.69596C19.7879 4.55147 19.7846 4.41654 19.7813 4.34642C20.6503 3.74083 21.4038 2.98544 22 2.12487C21.2025 2.46697 20.3467 2.69646 19.448 2.80058C20.3654 2.26936 21.6689 1.00294 22 0Z" fill="#7B786C"/>
</svg>
